<?xml version="1.0" encoding="utf-8"?>
<!-- Generator: Adobe Illustrator 23.1.0, SVG Export Plug-In . SVG Version: 6.00 Build 0)  -->
<svg version="1.1" xmlns="http://www.w3.org/2000/svg" xmlns:xlink="http://www.w3.org/1999/xlink" x="0px" y="0px"
	 viewBox="0 0 999 882" style="enable-background:new 0 0 999 882;" xml:space="preserve">
<style type="text/css">
	.st0{fill:none;stroke:#bfc2ca;stroke-width:20;stroke-linecap:round;stroke-linejoin:round;stroke-miterlimit:10;}
	
		.st1{fill-rule:evenodd;clip-rule:evenodd;fill:none;stroke:#bfc2ca;stroke-width:20;stroke-linecap:round;stroke-linejoin:round;stroke-miterlimit:10;}
</style>
<g id="Layer_1">
</g>
<g id="Layer_2" >
	<g>
		<path d="M898.91,115.93c14.39,0,26.09,11.7,26.09,26.09v499.1c0,14.39-11.7,26.09-26.09,26.09H91.09
			c-14.39,0-26.09-11.7-26.09-26.09v-499.1c0-14.39,11.7-26.09,26.09-26.09H898.91 M898.91,95.93H91.09
			C65.64,95.93,45,116.57,45,142.03v499.1c0,25.46,20.64,46.09,46.09,46.09h807.82c25.46,0,46.09-20.64,46.09-46.09v-499.1
			C945,116.57,924.36,95.93,898.91,95.93L898.91,95.93z"/>
	</g>
</g>
<g id="Layer_3" >
	<g>
		<path d="M593.42,698.22v46.57H385.15v-46.57H593.42 M613.42,678.22H365.15v86.57h248.28V678.22L613.42,678.22z"/>
	</g>
	<g>
		<line class="st0" x1="291.64" y1="759.09" x2="686.92" y2="759.09"/>
	</g>
</g>
<g id="Layer_7">
	<g>
		<line class="st0" x1="63" y1="612" x2="927" y2="612"/>
	</g>
</g>
<g id="Layer_6">
	<polyline class="st1" points="625.65,495.87 813.51,387.41 625.65,278.95 	"/>
</g>
<g id="Layer_6_copy">
	<path class="st1" d="M403.52,280.59"/>
	<polyline class="st1" points="357.79,282.22 169.93,390.68 357.79,499.14 	"/>
	<line class="st0" x1="533.38" y1="264.17" x2="445.18" y2="528.78"/>
</g>
</svg>
